<svg xmlns="http://www.w3.org/2000/svg" width="35.911" height="35.911" viewBox="0 0 35.911 35.911">
  <path id="ln" d="M76.18,42.92H45.571a2.651,2.651,0,0,0-2.651,2.651V76.18a2.651,2.651,0,0,0,2.651,2.651H76.18a2.651,2.651,0,0,0,2.651-2.651V45.571A2.651,2.651,0,0,0,76.18,42.92ZM53.623,73.512h-5.4V56.362h5.4Zm-2.7-19.527a3.1,3.1,0,1,1,3.115-3.1A3.057,3.057,0,0,1,50.923,53.985Zm22.6,19.542h-5.4V64.16c0-2.763-1.175-3.616-2.691-3.616-1.6,0-3.172,1.2-3.172,3.686v9.3h-5.4V56.374h5.192v2.377h.07a5.891,5.891,0,0,1,5.132-2.858c3.013,0,6.267,1.788,6.267,7.025Z" transform="translate(-42.92 -42.92)" fill="#80ffff"/>
</svg>
